<svg width="156" height="137" viewBox="0 0 156 137" fill="none" xmlns="http://www.w3.org/2000/svg">
<g clip-path="url(#clip0_553_1288)" filter="url(#filter0_d_553_1288)">
<path d="M71.7823 15.0048C70.4657 15.0048 69.3976 16.0752 69.3976 17.3947V27.6295C69.3976 28.9498 70.4657 30.0194 71.7823 30.0194C73.099 30.0194 74.1671 28.949 74.1671 27.6295V17.3947C74.1671 16.0752 73.099 15.0048 71.7823 15.0048ZM93.3399 15.0135C92.0248 15.0135 90.9583 16.0824 90.9583 17.4003V27.635C90.9583 28.953 92.0248 30.0218 93.3399 30.0218C94.6549 30.0218 95.7215 28.953 95.7215 27.635V17.4003C95.7215 16.0824 94.6549 15.0135 93.3399 15.0135ZM49.3155 15.0119C47.9981 15.0119 46.9308 16.0824 46.9308 17.4019V27.6366C46.9308 28.9562 47.9981 30.0266 49.3155 30.0266C50.633 30.0266 51.7003 28.957 51.7003 27.6366V17.4019C51.7003 16.0816 50.6322 15.0119 49.3155 15.0119ZM113.075 15C111.753 15 110.682 16.0736 110.682 17.3979V27.6334C110.682 28.9578 111.753 30.0314 113.075 30.0314C114.396 30.0314 115.468 28.9578 115.468 27.6334V17.3979C115.468 16.0736 114.396 15 113.075 15ZM44.2355 42.3584C43.6192 42.3584 43.0276 42.6043 42.5916 43.0405C42.1556 43.4774 41.911 44.0703 41.911 44.6879V51.6731C41.911 52.2907 42.1564 52.8836 42.5916 53.3206C43.0276 53.7575 43.6192 54.0034 44.2355 54.0034H54.2098C55.4931 54.0034 56.5342 52.96 56.5342 51.6739V44.6895C56.5342 43.4026 55.4931 42.36 54.2098 42.36H44.2355V42.3584ZM65.2935 42.3584C64.6772 42.3584 64.0856 42.6043 63.6496 43.0405C63.2136 43.4774 62.9691 44.0703 62.9691 44.6879V51.6731C62.9691 52.2915 63.2144 52.8836 63.6496 53.3206C64.0856 53.7575 64.6772 54.0034 65.2935 54.0034H75.2678C76.5511 54.0034 77.5922 52.96 77.5922 51.6739V44.6895C77.5922 43.4026 76.5511 42.36 75.2678 42.36H65.2935V42.3584ZM86.423 42.3584C85.8059 42.3584 85.2151 42.6043 84.7791 43.0405C84.3431 43.4774 84.0985 44.0703 84.0985 44.6879V51.6731C84.0985 52.2915 84.3431 52.8836 84.7791 53.3206C85.2151 53.7575 85.8059 54.0034 86.423 54.0034H96.3973C97.6814 54.0034 98.7217 52.96 98.7217 51.6739V44.6895C98.7217 43.4026 97.6806 42.36 96.3973 42.36H86.423V42.3584ZM107.557 42.3584C106.94 42.3584 106.349 42.6043 105.913 43.0405C105.477 43.4774 105.233 44.0703 105.233 44.6879V51.6731C105.233 52.2915 105.477 52.8836 105.913 53.3206C106.349 53.7575 106.94 54.0034 107.557 54.0034H117.532C118.816 54.0034 119.856 52.96 119.856 51.6739V44.6895C119.856 43.4026 118.815 42.36 117.532 42.36H107.557V42.3584ZM44.2355 59.6986C43.6192 59.6986 43.0276 59.9437 42.5916 60.3806C42.1556 60.8175 41.911 61.4097 41.911 62.028V69.0133C41.911 69.6317 42.1564 70.2238 42.5916 70.6607C43.0268 71.0976 43.6192 71.3428 44.2355 71.3428H54.2098C55.4931 71.3428 56.5342 70.2994 56.5342 69.0133V62.028C56.5342 60.7411 55.4931 59.6986 54.2098 59.6986H44.2355ZM65.2935 59.6986C64.6772 59.6986 64.0856 59.9437 63.6496 60.3806C63.2136 60.8175 62.9691 61.4097 62.9691 62.028V69.0133C62.9691 69.6317 63.2144 70.2238 63.6496 70.6607C64.0856 71.0976 64.6772 71.3428 65.2935 71.3428H75.2678C76.5511 71.3428 77.5922 70.2994 77.5922 69.0133V62.028C77.5922 60.7411 76.5511 59.6986 75.2678 59.6986H65.2935ZM86.423 59.6986C85.8059 59.6986 85.2151 59.9437 84.7791 60.3806C84.3431 60.8175 84.0985 61.4097 84.0985 62.028V69.0133C84.0985 69.6317 84.3431 70.2238 84.7791 70.6607C85.2151 71.0976 85.8059 71.3428 86.423 71.3428H96.3973C97.6814 71.3428 98.7217 70.2994 98.7217 69.0133V62.028C98.7217 60.7411 97.6806 59.6986 96.3973 59.6986H86.423ZM107.557 59.6986C106.94 59.6986 106.349 59.9437 105.913 60.3806C105.477 60.8175 105.233 61.4097 105.233 62.028V69.0133C105.233 69.6317 105.477 70.2238 105.913 70.6607C106.349 71.0976 106.94 71.3428 107.557 71.3428H117.532C118.816 71.3428 119.856 70.2994 119.856 69.0133V62.028C119.856 60.7411 118.815 59.6986 117.532 59.6986H107.557ZM44.2355 77.3069C43.6192 77.3069 43.0276 77.552 42.5916 77.989C42.1556 78.4259 41.911 79.0188 41.911 79.6364V86.6216C41.911 87.24 42.1564 87.8321 42.5916 88.2691C43.0276 88.706 43.6192 88.9519 44.2355 88.9519H54.2098C55.4931 88.9519 56.5342 87.9085 56.5342 86.6224V79.6372C56.5342 78.3503 55.4931 77.3077 54.2098 77.3077H44.2355V77.3069ZM65.2935 77.3069C64.6772 77.3069 64.0856 77.552 63.6496 77.989C63.2136 78.4259 62.9691 79.0188 62.9691 79.6364V86.6216C62.9691 87.24 63.2144 87.8321 63.6496 88.2691C64.0856 88.706 64.6772 88.9519 65.2935 88.9519H75.2678C76.5511 88.9519 77.5922 87.9085 77.5922 86.6224V79.6372C77.5922 78.3503 76.5511 77.3077 75.2678 77.3077H65.2935V77.3069ZM86.423 77.3069C85.8059 77.3069 85.2151 77.552 84.7791 77.989C84.3431 78.4259 84.0985 79.0188 84.0985 79.6364V86.6216C84.0985 87.24 84.3431 87.8321 84.7791 88.2691C85.2151 88.706 85.8059 88.9519 86.423 88.9519H96.3973C97.6814 88.9519 98.7217 87.9085 98.7217 86.6224V79.6372C98.7217 78.3503 97.6806 77.3077 96.3973 77.3077H86.423V77.3069ZM107.557 77.3069C106.94 77.3069 106.349 77.552 105.913 77.989C105.477 78.4259 105.233 79.0188 105.233 79.6364V86.6216C105.233 87.24 105.477 87.8321 105.913 88.2691C106.349 88.706 106.94 88.9519 107.557 88.9519H117.532C118.816 88.9519 119.856 87.9085 119.856 86.6224V79.6372C119.856 78.3503 118.815 77.3077 117.532 77.3077H107.557V77.3069ZM127.004 39.3143L127.009 82.1171H127.008C126.807 86.3033 126.541 89.1397 125.268 90.4179C124.019 91.673 121.338 91.8496 117.257 91.9157L44.4007 91.8425C40.1798 91.817 37.4163 91.6626 36.179 90.4179C34.9298 89.1612 34.7392 86.3176 34.6574 82.0447L34.7416 39.3143H127.004ZM44.6047 21.0613C44.5793 21.0613 44.5539 21.0613 44.5285 21.0628C41.0486 21.1965 36.2028 21.2578 33.5465 23.9009C30.8742 26.559 30.8655 31.3684 30.767 34.7874C30.767 34.8057 30.767 34.8232 30.767 34.8415L30.6741 82.0375C30.6741 82.0518 30.6741 82.0654 30.6741 82.0789C30.7408 85.6029 30.7019 90.5643 33.3574 93.236C36.0297 95.9236 40.9343 95.8146 44.3816 95.8353H44.3911L117.271 95.9093H117.274C117.285 95.9093 117.295 95.9093 117.305 95.9093C120.666 95.8552 125.429 95.9093 128.088 93.24C130.711 90.6057 130.824 85.7534 130.99 82.254V82.2325C130.993 82.2007 130.994 82.1688 130.994 82.137L130.987 34.9307C131.016 31.4456 131.195 26.4683 128.497 23.7735C125.815 21.0947 120.778 21.179 117.208 21.1416C117.201 21.1416 117.194 21.1416 117.187 21.1416H116.252V27.6358C116.252 29.3947 114.83 30.8201 113.076 30.8201C111.321 30.8201 109.899 29.3947 109.899 27.6358V21.1464L96.5156 21.1599V27.635C96.5156 29.3915 95.0949 30.8161 93.3414 30.8161C91.588 30.8161 90.1673 29.3915 90.1673 27.635V21.1663L77.1801 21.179L74.9692 21.1711V27.6295C74.9692 29.3923 73.5429 30.8209 71.7847 30.8209C70.0265 30.8209 68.5995 29.3923 68.5995 27.6295V21.148L52.5 21.0899V27.6366C52.5 29.3987 51.0745 30.8264 49.3171 30.8264C47.5597 30.8264 46.1342 29.3979 46.1342 27.6366V21.0668L44.6135 21.0613H44.6063H44.6047ZM29.9927 28.5543C29.2002 28.9204 28.4799 29.3891 27.8732 29.9924C25.2017 32.6505 25.1914 37.4599 25.0937 40.8781C25.0937 40.8956 25.0929 40.9139 25.0929 40.9314L25 88.1282C25 88.1425 25 88.1561 25 88.1704C25.0667 91.6944 25.027 96.6558 27.6834 99.3275C30.3548 102.015 35.2602 101.906 38.7075 101.927H38.717L111.597 102.001H111.599C111.61 102.001 111.621 102.001 111.631 102.001C114.991 101.946 119.755 102.001 122.414 99.3315C123.066 98.6765 123.563 97.8846 123.944 97.0108H118.927C117.499 97.8162 115.045 97.9523 111.583 98.0088L38.7266 97.9348C34.5058 97.9093 31.7422 97.7549 30.5049 96.5102C29.2558 95.2535 29.0652 92.4091 28.9834 88.1354L29.0763 40.9832C29.17 37.7385 29.3185 35.3477 29.9927 33.8547V28.5551V28.5543Z" fill="#277FF2"/>
</g>
<defs>
<filter id="filter0_d_553_1288" x="0" y="0" width="156" height="137" filterUnits="userSpaceOnUse" color-interpolation-filters="sRGB">
<feFlood flood-opacity="0" result="BackgroundImageFix"/>
<feColorMatrix in="SourceAlpha" type="matrix" values="0 0 0 0 0 0 0 0 0 0 0 0 0 0 0 0 0 0 127 0" result="hardAlpha"/>
<feOffset dy="10"/>
<feGaussianBlur stdDeviation="12.5"/>
<feComposite in2="hardAlpha" operator="out"/>
<feColorMatrix type="matrix" values="0 0 0 0 1 0 0 0 0 1 0 0 0 0 1 0 0 0 0.32 0"/>
<feBlend mode="normal" in2="BackgroundImageFix" result="effect1_dropShadow_553_1288"/>
<feBlend mode="normal" in="SourceGraphic" in2="effect1_dropShadow_553_1288" result="shape"/>
</filter>
<clipPath id="clip0_553_1288">
<rect width="106" height="87" fill="white" transform="translate(25 15)"/>
</clipPath>
</defs>
</svg>
