<svg width="18" height="19" viewBox="0 0 18 19" fill="none" xmlns="http://www.w3.org/2000/svg">
<path d="M0 3.72299C0 1.96455 1.42549 0.539062 3.18393 0.539062H14.4501C16.2086 0.539062 17.634 1.96455 17.634 3.72299V14.9892C17.634 16.7476 16.2086 18.1731 14.4501 18.1731H3.18392C1.42549 18.1731 0 16.7476 0 14.9892V3.72299ZM3.67376 4.21282C3.26797 4.21282 2.93901 4.54178 2.93901 4.94757C2.93901 5.35337 3.26797 5.68233 3.67376 5.68233H13.9603C14.3661 5.68233 14.695 5.35337 14.695 4.94757C14.695 4.54178 14.3661 4.21282 13.9603 4.21282H3.67376Z" fill="black" fill-opacity="0.3"/>
</svg>
