<svg width="24" height="25" viewBox="0 0 24 25" fill="none" xmlns="http://www.w3.org/2000/svg">
<path d="M12.0005 21.9439C17.1947 21.9439 21.4054 17.7332 21.4054 12.5391C21.4054 7.34496 17.1947 3.13428 12.0005 3.13428C6.80639 3.13428 2.5957 7.34496 2.5957 12.5391C2.5957 17.7332 6.80639 21.9439 12.0005 21.9439ZM9.64932 9.01229C9.64932 7.71376 10.702 6.66109 12.0005 6.66109C13.2991 6.66109 14.3517 7.71376 14.3517 9.01229C14.3517 10.3108 13.2991 11.3635 12.0005 11.3635C10.702 11.3635 9.64932 10.3108 9.64932 9.01229ZM9.0615 12.5391L14.9395 12.5391C15.9134 12.5391 16.7029 13.3286 16.7029 14.3025C16.7029 15.6146 16.1634 16.6658 15.2779 17.3765C14.4065 18.0759 13.2385 18.4171 12.0005 18.4171C10.7625 18.4171 9.59456 18.0759 8.72312 17.3765C7.83768 16.6658 7.29812 15.6146 7.29812 14.3025C7.29812 13.3286 8.08761 12.5391 9.0615 12.5391Z" fill="#277FF2"/>
</svg>
