<svg width="24" height="25" viewBox="0 0 24 25" fill="none" xmlns="http://www.w3.org/2000/svg">
<path d="M12.0005 21.9439C17.1947 21.9439 21.4054 17.7332 21.4054 12.539C21.4054 7.3449 17.1947 3.13422 12.0005 3.13422C6.80639 3.13422 2.5957 7.3449 2.5957 12.539C2.5957 17.7332 6.80639 21.9439 12.0005 21.9439ZM9.64932 9.01223C9.64932 7.7137 10.702 6.66103 12.0005 6.66103C13.2991 6.66103 14.3517 7.7137 14.3517 9.01223C14.3517 10.3108 13.2991 11.3634 12.0005 11.3634C10.702 11.3634 9.64932 10.3108 9.64932 9.01223ZM9.0615 12.539L14.9395 12.539C15.9134 12.539 16.7029 13.3285 16.7029 14.3024C16.7029 15.6145 16.1634 16.6657 15.2779 17.3764C14.4065 18.0759 13.2385 18.4171 12.0005 18.4171C10.7625 18.4171 9.59456 18.0759 8.72312 17.3764C7.83768 16.6657 7.29812 15.6145 7.29812 14.3024C7.29812 13.3286 8.08761 12.539 9.0615 12.539Z" fill="black" fill-opacity="0.3"/>
</svg>
