<svg width="24" height="25" viewBox="0 0 24 25" fill="none" xmlns="http://www.w3.org/2000/svg">
<path d="M3.975 21.5391C3.69167 21.5391 3.45833 21.4431 3.275 21.2511C3.09167 21.0597 3 20.8224 3 20.5391C3 20.2557 3.096 20.0184 3.288 19.8271C3.47933 19.6351 3.71667 19.5391 4 19.5391H20.025C20.3083 19.5391 20.5417 19.6351 20.725 19.8271C20.9083 20.0184 21 20.2557 21 20.5391C21 20.8224 20.904 21.0597 20.712 21.2511C20.5207 21.4431 20.2833 21.5391 20 21.5391H3.975ZM5 17.5391C4.45 17.5391 3.979 17.3434 3.587 16.9521C3.19567 16.5601 3 16.0891 3 15.5391V9.53906C3 8.98906 3.19567 8.51806 3.587 8.12606C3.979 7.73473 4.45 7.53906 5 7.53906H19C19.55 7.53906 20.021 7.73473 20.413 8.12606C20.8043 8.51806 21 8.98906 21 9.53906V15.5391C21 16.0891 20.8043 16.5601 20.413 16.9521C20.021 17.3434 19.55 17.5391 19 17.5391H5ZM3.975 5.53906C3.69167 5.53906 3.45833 5.44306 3.275 5.25106C3.09167 5.05973 3 4.8224 3 4.53906C3 4.25573 3.096 4.01806 3.288 3.82606C3.47933 3.63473 3.71667 3.53906 4 3.53906H20.025C20.3083 3.53906 20.5417 3.63473 20.725 3.82606C20.9083 4.01806 21 4.25573 21 4.53906C21 4.8224 20.904 5.05973 20.712 5.25106C20.5207 5.44306 20.2833 5.53906 20 5.53906H3.975Z" fill="black" fill-opacity="0.3"/>
</svg>
