<svg width="41" height="40" viewBox="0 0 41 40" fill="none" xmlns="http://www.w3.org/2000/svg">
<path d="M38.8281 25.2593C38.757 24.9742 38.6086 24.7124 38.4001 24.5046C38.4555 24.364 38.4852 24.2133 38.4852 24.0593C38.4852 23.3905 37.9407 22.8468 37.272 22.8468C37.0243 22.8468 36.7907 22.9194 36.5938 23.0523C36.429 22.9039 36.2352 22.7913 36.0251 22.7211C36.1697 21.8648 36.0704 21.0202 35.761 20.3335C35.7891 20.1827 35.8032 20.0273 35.8032 19.8687C35.8032 18.5226 34.7673 17.4132 33.4501 17.2976C33.1228 16.5093 32.3478 15.9796 31.4735 15.9796C30.4251 15.9796 29.5509 16.7374 29.3688 17.7335C28.622 17.7835 27.9782 18.2116 27.6275 18.8288C27.1485 18.8609 26.7009 19.0601 26.3228 19.4171C26.0142 19.7077 25.7751 20.0804 25.6111 20.5053C25.447 20.0804 25.208 19.7077 24.8994 19.4171C24.3134 18.864 23.5611 18.6898 22.7822 18.9257L21.6658 19.264C20.8923 19.4991 20.108 19.4984 19.3345 19.264L18.2181 18.9257C17.4392 18.6898 16.6868 18.864 16.1009 19.4171C15.7923 19.7077 15.5532 20.0804 15.3892 20.5053C15.2252 20.0804 14.9861 19.7077 14.6775 19.4171C14.2666 19.0296 13.7737 18.828 13.2478 18.8241C13.1431 18.4569 12.9306 18.1226 12.6361 17.8648C12.7283 17.6718 12.7776 17.4609 12.7776 17.2444C12.7776 16.4273 12.0885 15.7616 11.2416 15.7616C10.8853 15.7616 10.551 15.8773 10.2838 16.0843C9.89711 15.7069 9.36266 15.4859 8.80172 15.4859C7.99156 15.4859 7.26664 15.9382 6.92594 16.6218C6.85094 16.6116 6.77516 16.6069 6.69859 16.6069C5.75258 16.6069 4.98297 17.3491 4.98297 18.2616C4.98297 18.3585 4.99156 18.453 5.00875 18.5468C4.51031 18.8007 4.17828 19.3077 4.17828 19.8734C4.17828 20.4359 4.50172 20.9273 4.97828 21.1827C4.89312 21.6491 4.88602 22.1514 4.965 22.6592C4.77984 22.5694 4.57203 22.5194 4.35328 22.5194C3.8118 22.5194 3.32828 22.828 3.09391 23.2975C2.29062 23.4155 1.67188 24.1094 1.67188 24.9444C1.67188 25.1929 1.72656 25.4297 1.825 25.6413C1.72656 25.8679 1.67188 26.1187 1.67188 26.3812V37.632C1.67188 37.8477 1.84687 38.0227 2.0625 38.0227H38.8141C39.0297 38.0227 39.2047 37.8477 39.2047 37.632V26.3812C39.2047 25.9601 39.0648 25.5711 38.8281 25.2593ZM35.8531 23.4921C36.0094 23.5609 36.143 23.6781 36.2312 23.8296C36.3009 23.9491 36.4274 24.0226 36.5656 24.0241H36.5687C36.7055 24.0241 36.832 23.9523 36.9031 23.8359C36.982 23.7054 37.1203 23.628 37.2719 23.628C37.5102 23.628 37.7039 23.821 37.7039 24.0593C37.7039 24.164 37.6656 24.2648 37.5969 24.343C37.5516 24.3953 37.5203 24.4585 37.5078 24.5241C37.4992 24.5694 37.4977 24.6156 37.5055 24.6617C37.5234 24.7766 37.5914 24.8773 37.6914 24.9359C37.932 25.0797 38.0797 25.3258 38.093 25.6023L38.0938 25.603C38.0946 25.6164 38.0946 25.6305 38.0946 25.6437C38.0946 26.0969 37.7259 26.4657 37.272 26.4657C37.0033 26.4657 36.7501 26.3337 36.5963 26.1118C36.5088 25.986 36.3564 25.9227 36.2056 25.9501C36.0548 25.9775 35.9338 26.0907 35.897 26.2391C35.8048 26.6048 35.4767 26.8602 35.0994 26.8602C35.0822 26.8602 35.0657 26.8594 35.0486 26.8579H35.0478C34.7502 26.8399 34.4845 26.661 34.3572 26.3899C34.3572 26.3899 34.3563 26.3899 34.3563 26.3891C34.3533 26.3829 34.3502 26.3759 34.347 26.3696C34.29 26.2415 34.1696 26.154 34.0305 26.1392C34.0173 26.1376 34.0032 26.1368 33.9892 26.1368C33.865 26.1368 33.7478 26.1962 33.6736 26.2978C33.5892 26.4142 33.4579 26.4814 33.315 26.4814C33.0705 26.4814 32.872 26.2822 32.872 26.0384C32.872 25.8291 33.0204 25.6462 33.2244 25.6041C33.3407 25.5806 33.44 25.5041 33.4939 25.3978C33.5103 25.3658 33.5213 25.3322 33.5275 25.2978C33.5447 25.218 33.5353 25.1344 33.5009 25.0587C33.4666 24.9853 33.4494 24.9063 33.4494 24.8252C33.4494 24.711 33.4837 24.6048 33.5423 24.5166C33.6423 24.3642 33.8149 24.2643 34.0102 24.2643C34.0782 24.2643 34.1454 24.2767 34.2087 24.3002C34.3126 24.34 34.4274 24.333 34.5259 24.2823C34.6244 24.2315 34.697 24.1416 34.7252 24.0337C34.7736 23.8494 34.8822 23.6939 35.0266 23.5854C35.165 23.4815 35.3369 23.4205 35.5204 23.4205C35.6359 23.4202 35.75 23.4453 35.8531 23.4921ZM28.1484 19.6554C28.196 19.3835 28.3234 19.139 28.5054 18.946C28.7577 18.678 29.1156 18.5101 29.5125 18.5101C29.5663 18.5101 29.6203 18.5132 29.6781 18.5202C29.7905 18.5335 29.9031 18.4984 29.9866 18.4226C30.0702 18.3468 30.1171 18.2382 30.1148 18.1257V18.1155C30.1171 17.3679 30.7257 16.7609 31.4734 16.7609C32.093 16.7609 32.6337 17.1788 32.7883 17.778C32.8344 17.9538 32.9945 18.0749 33.1766 18.0702H33.1992C33.2071 18.0694 33.2148 18.0694 33.2227 18.0694C33.993 18.0694 34.6516 18.5562 34.9078 19.2382C34.9812 19.4343 35.0219 19.6468 35.0219 19.8687C35.0219 20.064 34.9907 20.253 34.9321 20.4288C34.6969 21.1476 34.0195 21.6679 33.2227 21.6679C32.4547 21.6679 31.7711 21.1804 31.5212 20.4546C31.4742 20.3155 31.3532 20.2171 31.2109 20.196C31.1962 20.1928 31.1805 20.192 31.1648 20.1912C31.1602 20.1905 31.1563 20.1905 31.1516 20.1905C31.1086 20.1905 31.0664 20.1975 31.0266 20.2116C30.9227 20.2467 30.8352 20.3248 30.7914 20.4304C30.5749 20.9475 30.0734 21.2812 29.5125 21.2812C28.7484 21.2812 28.1273 20.6601 28.1273 19.896C28.1273 19.814 28.1344 19.7335 28.1484 19.6554ZM26.8578 19.9859C26.9829 19.8679 27.1492 19.7491 27.357 19.6765C27.35 19.7484 27.3461 19.8218 27.3461 19.896C27.3461 21.0905 28.318 22.0624 29.5125 22.0624C30.1352 22.0624 30.7109 21.7991 31.1141 21.3569C31.589 22.0296 32.3695 22.4491 33.2226 22.4491C34.0554 22.4491 34.7976 22.0523 35.2695 21.4374C35.3273 21.8257 35.3202 22.2452 35.2413 22.664C34.7554 22.7491 34.3366 23.0538 34.1063 23.4859C34.0742 23.4843 34.0422 23.4828 34.0102 23.4828C33.3766 23.4828 32.8438 23.9241 32.7039 24.5163C32.6805 24.6156 32.668 24.7187 32.668 24.8249C32.668 24.8812 32.6719 24.9373 32.6781 24.9921C32.5469 25.0719 32.4328 25.1765 32.3407 25.2976C32.1828 25.5053 32.0906 25.7632 32.0906 26.0381C32.0906 26.7132 32.6398 27.2623 33.3149 27.2623C33.5243 27.2623 33.7274 27.2077 33.9062 27.1093C33.9759 27.1866 34.0516 27.2561 34.1344 27.317L33.4852 30.0311C33.4812 30.0475 33.4766 30.0648 33.4711 30.0811C33.4609 30.1139 33.4477 30.1452 33.4328 30.1757C33.4249 30.1912 33.4164 30.2053 33.4078 30.2202C33.3962 30.2413 33.3829 30.2616 33.368 30.2811C33.3594 30.292 33.3508 30.3037 33.3414 30.3139C33.3281 30.3303 33.3133 30.3459 33.2984 30.36C33.2905 30.3678 33.2828 30.3756 33.2749 30.3819C33.2664 30.3897 33.257 30.3967 33.2484 30.4037C33.2218 30.4255 33.1929 30.4459 33.164 30.4631C33.1632 30.4639 33.1632 30.4639 33.1624 30.4639C33.1484 30.4724 33.1343 30.4795 33.1195 30.4866C33.1061 30.4936 33.0928 30.4991 33.0788 30.5044C33.0623 30.5107 33.0459 30.5169 33.0295 30.5209C33.0037 30.5287 32.9772 30.5342 32.9506 30.5388C32.9381 30.5405 32.9256 30.5412 32.9139 30.5427C32.9014 30.5427 32.8889 30.5435 32.8764 30.5435C32.8716 30.5435 32.8663 30.5419 32.8623 30.5381C32.8607 30.5373 32.8592 30.5358 32.8576 30.5334C32.856 30.5326 32.8553 30.531 32.8553 30.5294C32.853 30.5263 32.8505 30.5232 32.8498 30.5201C32.8491 30.517 32.8483 30.513 32.8483 30.5099C32.8466 30.4896 32.8451 30.4686 32.8428 30.4474C32.8405 30.4255 32.8388 30.4037 32.8373 30.3809C32.8326 30.3341 32.828 30.2865 32.8233 30.2388C32.8154 30.1615 32.8069 30.0826 32.7967 30.0036C32.792 29.9637 32.7865 29.9232 32.7811 29.8817C32.7756 29.838 32.7702 29.7942 32.7639 29.7505C32.7591 29.7184 32.7545 29.6864 32.7498 29.6528C32.7396 29.5825 32.7287 29.5098 32.717 29.4363C32.7084 29.3809 32.6991 29.3254 32.6896 29.2699C32.6825 29.2285 32.6755 29.1871 32.6677 29.1457C32.6599 29.098 32.6513 29.0504 32.642 29.0019C32.6279 28.9238 32.6123 28.8465 32.5966 28.7684C32.4271 27.9254 32.1693 27.0105 31.8069 26.3613C31.7952 26.3402 31.7834 26.3199 31.7717 26.2996C31.7569 26.2738 31.742 26.2488 31.7264 26.2238C31.7108 26.1973 31.6944 26.1723 31.6772 26.1473C31.6616 26.1238 31.6466 26.1012 31.6302 26.0785C31.3951 25.7394 31.1388 25.548 30.8584 25.5027C30.8373 25.4988 30.8162 25.4957 30.7951 25.4942C30.7849 25.4934 30.7739 25.4926 30.763 25.4918C30.7599 25.491 30.7576 25.491 30.7545 25.4918C30.749 25.491 30.7435 25.491 30.738 25.491C30.7327 25.4902 30.7271 25.4902 30.7216 25.4902C30.7162 25.4902 30.7107 25.4902 30.7052 25.491C30.6998 25.491 30.6943 25.491 30.6888 25.4918C30.6857 25.491 30.6834 25.491 30.6802 25.4918C30.6693 25.4927 30.6584 25.4934 30.6483 25.4942C30.6271 25.4958 30.6061 25.4989 30.5849 25.5027C30.3052 25.5473 30.0482 25.7379 29.8123 26.0785C29.7974 26.0997 29.7826 26.1207 29.7684 26.1425C29.7505 26.1691 29.7333 26.1957 29.7161 26.2238C29.7013 26.2487 29.6864 26.2738 29.6716 26.2996C29.6599 26.3199 29.6481 26.3402 29.6365 26.3613C29.6177 26.3956 29.599 26.4309 29.5802 26.4675C29.2466 27.1081 29.0067 27.9714 28.8466 28.7683C28.8325 28.837 28.8185 28.9059 28.8059 28.9745C28.7942 29.0331 28.7833 29.0926 28.7739 29.1512C28.7566 29.2465 28.7419 29.3386 28.727 29.43C28.7247 29.4441 28.7223 29.4581 28.7208 29.4714C28.7098 29.5402 28.6996 29.6073 28.6902 29.6753C28.6902 29.6776 28.6895 29.6792 28.6895 29.6816C28.6855 29.7058 28.6824 29.7299 28.6793 29.7534C28.6738 29.7925 28.6683 29.8308 28.6637 29.8683C28.6598 29.9003 28.6559 29.9308 28.652 29.9612C28.6457 30.0034 28.641 30.0456 28.6364 30.087C28.6309 30.1385 28.6247 30.1894 28.6199 30.2377C28.6129 30.312 28.6059 30.3816 28.6004 30.4463C28.5981 30.4683 28.5965 30.4894 28.595 30.5104C28.595 30.5144 28.5934 30.519 28.5919 30.5229C28.5887 30.5307 28.5825 30.5369 28.5755 30.5409C28.5716 30.5424 28.5676 30.5431 28.5638 30.5431C28.4911 30.5431 28.4192 30.5276 28.352 30.5002C28.3294 30.4908 28.3075 30.4798 28.2864 30.4682C28.2348 30.4392 28.1872 30.4025 28.1442 30.3603C28.0552 30.2729 27.988 30.1587 27.9575 30.0306L26.8255 25.297L26.7099 24.815L26.6388 24.5158L26.242 22.8573C25.975 21.7391 26.2227 20.5851 26.8578 19.9859ZM25.6109 23.5758L25.8359 24.5164H25.3859L25.6109 23.5758ZM16.6359 19.9859C16.9008 19.7359 17.3507 19.4796 17.9914 19.6734L19.1078 20.0116C19.7312 20.2007 20.3609 20.2624 20.9891 20.196C20.3984 20.3398 19.9336 20.8069 19.7922 21.3984C18.9759 21.4952 18.3415 22.1921 18.3415 23.0336C18.3415 23.6852 18.7212 24.2492 19.2704 24.5163C19.4876 24.6218 19.7313 24.6812 19.9884 24.6812C20.243 24.6812 20.4876 24.6234 20.7071 24.5163C20.8548 24.4452 20.9907 24.353 21.1102 24.2412C21.193 24.3429 21.2859 24.435 21.3867 24.5163C21.725 24.7937 22.1555 24.9546 22.6125 24.9546C23.0773 24.9546 23.5047 24.7905 23.8391 24.5163C24.275 24.1609 24.5531 23.6195 24.5531 23.0148C24.5531 22.0257 23.8094 21.2069 22.8516 21.089C22.5884 20.5234 22.0172 20.1491 21.3758 20.1491C21.3546 20.1491 21.3328 20.15 21.3117 20.1508C21.5055 20.1172 21.6992 20.0703 21.8923 20.0117L23.0087 19.6734C23.6492 19.4797 24.0993 19.7359 24.3641 19.9859C24.9993 20.5852 25.247 21.7391 24.979 22.8579L24.5821 24.5164L24.3962 25.2977H24.3954L23.2641 30.0312C23.2595 30.0491 23.2548 30.0672 23.2485 30.0852C23.2251 30.1562 23.1899 30.2227 23.1462 30.2812C23.1243 30.3117 23.0992 30.3398 23.0727 30.3648C23.0587 30.3781 23.0447 30.3906 23.0305 30.4023C23.0165 30.4139 23.0025 30.4249 22.9876 30.4343C22.947 30.4632 22.9032 30.4866 22.8571 30.5045C22.7923 30.5295 22.7243 30.5436 22.6548 30.5436C22.65 30.5436 22.6446 30.542 22.6407 30.5382C22.6391 30.5373 22.6376 30.5359 22.6359 30.5334C22.6344 30.5327 22.6336 30.5311 22.6336 30.5295C22.6313 30.5264 22.6289 30.5233 22.6282 30.5202C22.6275 30.517 22.6266 30.5131 22.6266 30.51C22.625 30.4897 22.6234 30.4687 22.6212 30.4475C22.6188 30.4256 22.6172 30.4037 22.6157 30.381C22.6109 30.3341 22.6063 30.2866 22.6016 30.2389C22.5993 30.2139 22.5969 30.1889 22.5938 30.1631C22.5884 30.1116 22.5812 30.0569 22.575 30.0014C22.5688 29.9467 22.5617 29.8912 22.5539 29.8358C22.5477 29.7897 22.5406 29.7428 22.5344 29.6944C22.5242 29.6225 22.5132 29.5482 22.5016 29.4725C22.4937 29.4272 22.4867 29.3811 22.4789 29.3341C22.4781 29.3294 22.4773 29.324 22.4766 29.3193C22.4594 29.2162 22.4406 29.1099 22.4203 29.0021C22.4062 28.924 22.3906 28.8466 22.375 28.7685C22.2055 27.9255 21.9477 27.0107 21.5852 26.3615C21.5735 26.3403 21.5617 26.3201 21.55 26.2998C21.5376 26.2779 21.5251 26.2568 21.5126 26.2365C21.497 26.2107 21.4813 26.1857 21.4649 26.1614C21.4438 26.1294 21.422 26.0981 21.4001 26.0677C21.3752 26.0325 21.3501 25.9989 21.3243 25.9669C21.3087 25.9473 21.2923 25.9278 21.2759 25.9083C21.1251 25.7309 20.965 25.6106 20.797 25.5474C20.7891 25.5442 20.7813 25.5419 20.7727 25.5388C20.7492 25.5309 20.7258 25.5232 20.7024 25.5177C20.6727 25.5098 20.6423 25.5029 20.611 25.499C20.5993 25.4959 20.5868 25.4951 20.5743 25.4943C20.5641 25.4934 20.5539 25.4927 20.5438 25.4927C20.5398 25.491 20.5359 25.491 20.5321 25.4918C20.522 25.4902 20.5109 25.4902 20.5001 25.4902C20.4892 25.4902 20.4782 25.4902 20.468 25.4918C20.4641 25.491 20.4602 25.491 20.4563 25.4927C20.4462 25.4927 20.436 25.4934 20.4259 25.4943C20.4134 25.4951 20.4009 25.4959 20.3891 25.499C20.3579 25.5029 20.3274 25.5099 20.2977 25.5177C20.2743 25.5231 20.2508 25.5309 20.2274 25.5388C20.2189 25.5419 20.211 25.5442 20.2032 25.5474C20.0352 25.6107 19.8751 25.731 19.7243 25.9083C19.7079 25.9278 19.6915 25.9473 19.6759 25.9669C19.6501 25.9989 19.6251 26.0325 19.6001 26.0677C19.5782 26.0982 19.5562 26.1294 19.5352 26.1614C19.5187 26.1857 19.5032 26.2107 19.4876 26.2365C19.4751 26.2568 19.4626 26.2778 19.4501 26.2998C19.4384 26.3201 19.4266 26.3404 19.415 26.3615C19.0524 27.0107 18.7947 27.9262 18.6252 28.7693C18.6181 28.8044 18.6111 28.838 18.6048 28.8723C18.5994 28.9005 18.5938 28.9286 18.5876 28.9567C18.5853 28.9684 18.5837 28.9794 18.5822 28.9904C18.5712 29.0466 18.561 29.1028 18.5516 29.1583C18.5423 29.209 18.5337 29.2606 18.5251 29.3114C18.5103 29.3997 18.497 29.4848 18.4845 29.5692C18.4828 29.5778 18.4821 29.5871 18.4805 29.5959C18.472 29.6536 18.4641 29.7106 18.4562 29.7677C18.4438 29.8583 18.432 29.9466 18.422 30.0302C18.4165 30.0762 18.4109 30.1207 18.4063 30.1637C18.4032 30.1918 18.4001 30.22 18.3977 30.2473C18.3954 30.2707 18.393 30.2942 18.3907 30.3176C18.3876 30.348 18.3852 30.3778 18.3821 30.4073C18.379 30.4434 18.3759 30.4777 18.3736 30.5105C18.3736 30.5144 18.3727 30.5175 18.372 30.5207C18.3704 30.5237 18.3688 30.5269 18.3665 30.5292C18.3665 30.5308 18.3649 30.5323 18.3642 30.5331C18.3626 30.5355 18.3611 30.537 18.3587 30.5379C18.3572 30.5394 18.3548 30.541 18.3525 30.5418C18.3494 30.5426 18.3463 30.5434 18.3431 30.5434C18.2705 30.5434 18.1986 30.5278 18.1314 30.5004C18.1088 30.491 18.0861 30.4801 18.065 30.4684C18.0134 30.4394 17.9657 30.4036 17.9228 30.3605C17.8337 30.2731 17.7666 30.159 17.7361 30.0309L16.6048 25.2973H16.6041L16.4181 24.516L16.0212 22.8575C15.7531 21.7391 16.0008 20.5851 16.6359 19.9859ZM21.3758 20.9304C21.7617 20.9304 22.0984 21.1905 22.1953 21.564C22.2406 21.7398 22.4016 21.8617 22.5836 21.857L22.6125 21.8554C23.2516 21.8554 23.7719 22.3756 23.7719 23.0148C23.7719 23.653 23.2516 24.1734 22.6125 24.1734C22.118 24.1734 21.6781 23.8592 21.5171 23.3912C21.464 23.2381 21.3227 23.1334 21.1609 23.128H21.1476C20.9905 23.128 20.8484 23.2226 20.7874 23.3678C20.6523 23.6905 20.3382 23.8999 19.9883 23.8999C19.5109 23.8999 19.1227 23.5109 19.1227 23.0335C19.1227 22.5561 19.5109 22.1679 19.9883 22.1679C20.0219 22.1679 20.0554 22.1695 20.0922 22.1741C20.2031 22.1866 20.3141 22.1522 20.3976 22.078C20.4812 22.0038 20.5289 21.8975 20.5289 21.7859V21.7748C20.5297 21.3094 20.9094 20.9304 21.3758 20.9304ZM15.3891 23.5758L15.6141 24.5164H15.1641L15.3891 23.5758ZM13.3031 19.6077C13.6766 19.6304 13.9555 19.8101 14.1422 19.9859C14.7773 20.5851 15.025 21.739 14.7578 22.8578L14.3609 24.5163L14.2898 24.8155L14.1743 25.2976L13.0423 30.0312C13.0376 30.0491 13.0329 30.0671 13.0266 30.0851C13.0032 30.1562 12.968 30.2226 12.9243 30.2812C12.9024 30.3116 12.8773 30.3398 12.8509 30.3648C12.8376 30.378 12.8235 30.3905 12.8087 30.4022C12.7946 30.4138 12.7805 30.4248 12.7657 30.4342C12.7509 30.4452 12.7368 30.4545 12.7212 30.4631C12.7212 30.4631 12.7204 30.4639 12.7196 30.4639C12.7055 30.4724 12.6915 30.4795 12.6766 30.4866C12.6477 30.5006 12.618 30.5123 12.5868 30.5209C12.5704 30.5263 12.554 30.5302 12.5368 30.5334C12.5195 30.5365 12.5024 30.5396 12.4852 30.5412C12.468 30.5428 12.4509 30.5435 12.4337 30.5435C12.4298 30.5435 12.4266 30.5427 12.4235 30.5412C12.4134 30.5358 12.4055 30.524 12.4048 30.5107V30.5099C12.4016 30.4669 12.3977 30.4248 12.3938 30.381C12.3922 30.3584 12.3898 30.3349 12.3876 30.3115C12.3821 30.2537 12.3751 30.1912 12.368 30.1271C12.3673 30.1186 12.3664 30.1092 12.3649 30.1005C12.361 30.0623 12.3563 30.0241 12.3508 29.985C12.3492 29.9725 12.3485 29.96 12.3461 29.9476C12.3398 29.8952 12.3328 29.8412 12.325 29.7859C12.321 29.7584 12.3171 29.7303 12.3133 29.7023C12.3055 29.6459 12.2969 29.5882 12.2883 29.5296C12.2789 29.471 12.2696 29.4116 12.2594 29.3507C12.2563 29.3304 12.2531 29.3109 12.2492 29.2905C12.2484 29.2803 12.247 29.2694 12.2445 29.2593C12.2398 29.2296 12.2344 29.1991 12.2289 29.1694C12.2234 29.1382 12.218 29.1062 12.2117 29.0741C12.2063 29.043 12.2 29.0102 12.1945 28.9781C12.1812 28.9085 12.1679 28.8391 12.1531 28.7687C11.993 27.971 11.7531 27.1085 11.4195 26.4679C11.4008 26.4312 11.382 26.396 11.3632 26.3617C11.3516 26.3405 11.3398 26.3203 11.328 26.3C11.3164 26.2781 11.3038 26.257 11.2906 26.2367C11.2765 26.2132 11.2625 26.1914 11.2484 26.1694C11.2352 26.1491 11.2219 26.1288 11.2086 26.1093C11.1969 26.0921 11.1851 26.075 11.1727 26.0585C11.1609 26.0422 11.1491 26.0257 11.1367 26.0102C10.9593 25.771 10.7687 25.6164 10.5655 25.5444C10.5538 25.5391 10.5429 25.5352 10.5312 25.532C10.5195 25.5281 10.5077 25.5249 10.4961 25.5211C10.4757 25.5156 10.4547 25.5109 10.4336 25.5062C10.4187 25.5031 10.4038 25.5008 10.3891 25.4992C10.3766 25.4976 10.3648 25.4961 10.3523 25.4945C10.3422 25.4937 10.332 25.4929 10.3218 25.4929C10.321 25.4929 10.3202 25.492 10.3195 25.492H10.3102C10.3047 25.4912 10.2999 25.4912 10.2945 25.4912C10.2891 25.4905 10.2836 25.4905 10.2781 25.4905C10.2727 25.4905 10.2671 25.4905 10.2617 25.4912C10.2562 25.4912 10.2507 25.4912 10.2453 25.492H10.2367C10.2258 25.4929 10.2148 25.4937 10.2047 25.4944C10.1922 25.4952 10.1805 25.4967 10.168 25.4991C10.1508 25.5015 10.1336 25.5038 10.1164 25.5077C10.1079 25.5093 10.0992 25.5108 10.0914 25.5131C10.0813 25.5155 10.0719 25.5178 10.0617 25.521C9.77586 25.5959 9.51328 25.8295 9.27344 26.2241C9.25781 26.2491 9.24297 26.2741 9.22813 26.2999C9.21648 26.3202 9.20469 26.3405 9.19297 26.3616C8.83047 27.0109 8.57273 27.9264 8.4032 28.7694C8.39617 28.8045 8.38914 28.8381 8.38289 28.8725C8.37742 28.9006 8.37187 28.9287 8.36562 28.9569C8.36406 28.9685 8.36172 28.9795 8.36023 28.9905C8.35164 29.0366 8.34297 29.0819 8.33523 29.128C8.32734 29.1734 8.31961 29.2178 8.3118 29.2624C8.31016 29.2718 8.30867 29.2811 8.30703 29.2905C8.30078 29.3256 8.29539 29.3608 8.28984 29.3952C8.28281 29.4382 8.27578 29.4819 8.26953 29.5241C8.26719 29.5397 8.26477 29.5545 8.2625 29.5702C8.25391 29.6241 8.24687 29.6772 8.23898 29.7287C8.2382 29.7327 8.2382 29.7358 8.23742 29.7398C8.2343 29.7647 8.23039 29.7889 8.22727 29.8139C8.22336 29.8389 8.22023 29.8632 8.21789 29.8881C8.21555 29.9045 8.2132 29.9209 8.21164 29.9373C8.20852 29.96 8.20539 29.9827 8.20305 30.0045C8.19289 30.0834 8.18438 30.1624 8.17648 30.2397C8.17422 30.2639 8.1718 30.2881 8.16945 30.3124C8.16477 30.3593 8.16008 30.4053 8.15695 30.4483C8.15469 30.4694 8.15305 30.4905 8.15148 30.5108C8.15148 30.5148 8.1507 30.5178 8.14992 30.521C8.14836 30.5241 8.1468 30.5273 8.14445 30.5295C8.14445 30.5311 8.14289 30.5327 8.14219 30.5334C8.13984 30.5366 8.13672 30.5397 8.13281 30.5413C8.12891 30.5429 8.12492 30.5436 8.12109 30.5436C8.10633 30.5436 8.09219 30.5428 8.07734 30.542H8.075C8.07336 30.542 8.07266 30.542 8.07109 30.5412C8.05938 30.5405 8.04609 30.5389 8.0343 30.5365C8.03352 30.5365 8.03203 30.5357 8.03125 30.5365C8.01711 30.5334 8.00313 30.5302 7.98984 30.5272C7.975 30.524 7.96094 30.5193 7.94688 30.5147C7.93586 30.5107 7.925 30.5068 7.91406 30.5022C7.90617 30.4991 7.89844 30.4959 7.89055 30.4919C7.87891 30.4873 7.86789 30.4819 7.85695 30.4756C7.84055 30.4677 7.82414 30.4577 7.80852 30.4475C7.79688 30.4396 7.7843 30.4319 7.77336 30.4225C7.76008 30.4131 7.7468 30.4022 7.7343 30.3913C7.72023 30.3796 7.70625 30.3663 7.69367 30.353C7.68195 30.342 7.6718 30.3312 7.66242 30.3194C7.65148 30.3069 7.64062 30.2937 7.63039 30.2796C7.62023 30.2648 7.61008 30.2498 7.59992 30.2343C7.56164 30.1725 7.53273 30.1038 7.51477 30.0311L6.5343 25.9303C6.69836 25.7545 6.81789 25.5381 6.87648 25.2975C6.90305 25.1889 6.91711 25.0764 6.91711 24.96C6.91711 24.8054 6.89219 24.6561 6.84609 24.5162C6.71016 24.103 6.38977 23.7717 5.98195 23.6232L5.79914 22.8577C5.67805 22.3514 5.66242 21.8373 5.74055 21.3709C6.04523 21.3686 6.33977 21.2795 6.5882 21.1202C6.97727 21.5897 7.57336 21.8748 8.21477 21.8748C8.94602 21.8748 9.60461 21.5091 9.97727 20.9381C10.3359 21.2022 10.7789 21.3513 11.2414 21.3513C12.2969 21.3515 13.1719 20.5898 13.3031 19.6077ZM4.95938 19.8734C4.95938 19.5366 5.21641 19.2413 5.56953 19.1718C5.68836 19.1484 5.78984 19.0718 5.84383 18.9632C5.89766 18.8554 5.89844 18.728 5.84609 18.6194C5.79148 18.5062 5.76406 18.3859 5.76406 18.2616C5.76406 17.7804 6.18359 17.3882 6.69844 17.3882C6.81406 17.3882 6.92734 17.4077 7.03438 17.4468C7.1375 17.4835 7.25086 17.4765 7.34688 17.4265C7.44375 17.3757 7.51562 17.2874 7.54453 17.1827C7.69141 16.6437 8.20859 16.2671 8.80156 16.2671C9.26562 16.2671 9.69688 16.503 9.92891 16.8819C9.99922 16.9968 10.1234 17.0679 10.2587 17.0687C10.3946 17.0694 10.5196 17.0023 10.5915 16.8882C10.7274 16.6749 10.9759 16.5429 11.2415 16.5429C11.657 16.5429 11.9962 16.8577 11.9962 17.2444C11.9962 17.4109 11.9321 17.5726 11.8156 17.6991C11.7352 17.7874 11.6984 17.9069 11.7172 18.0241C11.7359 18.1421 11.807 18.2444 11.9102 18.303C12.1789 18.4554 12.3735 18.6851 12.4703 18.953C12.5156 19.078 12.5399 19.2116 12.5399 19.3491C12.5399 19.4976 12.5118 19.6405 12.4595 19.7726C12.2759 20.2381 11.7993 20.5702 11.2415 20.5702C10.8984 20.5702 10.5743 20.4429 10.3337 20.221C10.2734 20.1655 10.218 20.1046 10.1688 20.0373C10.0805 19.9147 9.92977 19.8553 9.78133 19.8827C9.63758 19.91 9.52203 20.0147 9.48055 20.1529C9.4782 20.1577 9.47742 20.1623 9.47578 20.167C9.33203 20.7123 8.81336 21.0936 8.21484 21.0936C7.69844 21.0936 7.23047 20.8053 7.02422 20.3592C6.96641 20.235 6.84844 20.1498 6.71172 20.135C6.69766 20.1334 6.68367 20.1327 6.66953 20.1327C6.54844 20.1327 6.43359 20.189 6.35867 20.2866C6.26953 20.403 6.14695 20.4912 6.00711 20.5413C5.91961 20.5734 5.82586 20.5897 5.72969 20.5897C5.52969 20.5897 5.34695 20.5178 5.20945 20.4006C5.05625 20.2702 4.95938 20.0819 4.95938 19.8734ZM5.64687 25.5835C5.59766 25.596 5.54609 25.6023 5.49375 25.6023C5.26797 25.6023 5.0625 25.4859 4.94687 25.2977C4.92969 25.2695 4.91406 25.2391 4.90078 25.2078C4.83828 25.0587 4.68906 24.9633 4.52734 24.968C4.3657 24.9734 4.22344 25.0782 4.17109 25.2312C4.1632 25.254 4.15469 25.2758 4.14531 25.2977C4.00547 25.618 3.6882 25.8274 3.33594 25.8274C3.11953 25.8274 2.92109 25.7493 2.76719 25.6196C2.57586 25.4579 2.45312 25.2149 2.45312 24.9445C2.45312 24.9172 2.45469 24.8899 2.45703 24.8625C2.49844 24.4141 2.87656 24.0617 3.33594 24.0609L3.35859 24.0617C3.54219 24.068 3.70078 23.9454 3.74688 23.7696C3.81797 23.493 4.06797 23.3009 4.3532 23.3009C4.69773 23.3009 4.9782 23.5797 4.97977 23.9234V23.9344C4.97977 24.0462 5.02742 24.1524 5.11102 24.2266C5.17672 24.2852 5.25945 24.3195 5.34625 24.3251C5.36969 24.3259 5.39313 24.3259 5.41648 24.3228C5.44391 24.3196 5.46969 24.318 5.49383 24.318C5.67586 24.318 5.83992 24.3938 5.95711 24.5165C5.95711 24.5165 5.93922 24.5188 5.965 24.5243C6.07117 24.6384 6.13602 24.7916 6.13602 24.9602C6.13602 25.0837 6.10086 25.1993 6.04 25.2977C5.9525 25.4384 5.81266 25.543 5.64773 25.5836M38.4234 37.2413H2.45312V26.3812C2.45312 26.3727 2.45312 26.3633 2.45391 26.3547C2.70945 26.5156 3.0125 26.6086 3.33594 26.6086C3.82031 26.6086 4.26953 26.3984 4.57891 26.0515C4.82969 26.2616 5.15078 26.3835 5.49375 26.3835C5.60859 26.3835 5.72109 26.3694 5.82812 26.3437H5.82891L6.75469 30.2132C6.80711 30.4343 6.91016 30.635 7.04852 30.803C7.07344 30.8336 7.10008 30.8632 7.12742 30.8913C7.26414 31.0335 7.4282 31.1461 7.60945 31.221C7.6368 31.232 7.66414 31.2429 7.69227 31.2523C7.70086 31.2554 7.70953 31.2585 7.71891 31.2609C7.73133 31.2655 7.74469 31.2694 7.75875 31.2733C7.7868 31.2812 7.8157 31.2881 7.84469 31.2944C7.87594 31.3015 7.90805 31.3069 7.94008 31.3116C7.94547 31.3124 7.95023 31.3133 7.95563 31.314C8.01266 31.3219 8.07055 31.3256 8.12914 31.3256C8.14156 31.3256 8.15406 31.3248 8.16656 31.3241C8.20563 31.3218 8.24469 31.3162 8.28219 31.3093C8.30711 31.3038 8.33062 31.2976 8.35406 31.2905C8.48688 31.2507 8.60563 31.1765 8.70086 31.0788C8.71805 31.0609 8.73453 31.0421 8.75008 31.0234C8.78445 30.9812 8.81414 30.9359 8.83992 30.8874C8.86102 30.8468 8.87977 30.8045 8.89375 30.7601C8.90164 30.7359 8.90789 30.7109 8.91414 30.6859C8.91953 30.6609 8.9243 30.6351 8.92742 30.6093C8.92898 30.5969 8.93055 30.5835 8.93133 30.5702C9.00477 29.6102 9.22586 28.4828 9.50867 27.6273C9.76422 26.8555 9.9993 26.5047 10.1447 26.3601C10.1611 26.3437 10.1759 26.3296 10.19 26.3187C10.197 26.3133 10.2041 26.3077 10.2103 26.3031C10.2166 26.2984 10.2228 26.2945 10.2282 26.2914C10.2298 26.2906 10.2305 26.2898 10.2322 26.2891C10.2361 26.2867 10.24 26.2844 10.2431 26.2829C10.2463 26.2812 10.2494 26.2797 10.2517 26.2789C10.2525 26.2789 10.254 26.2781 10.2556 26.2781C10.2595 26.2766 10.2627 26.275 10.2658 26.2742C10.2673 26.2734 10.2681 26.2734 10.2689 26.2734C10.2728 26.2726 10.2752 26.2726 10.2783 26.2726C10.2814 26.2726 10.2837 26.2726 10.2877 26.2734C10.2884 26.2734 10.2899 26.2734 10.2916 26.2742C10.2939 26.2742 10.2963 26.275 10.2994 26.2766C10.3002 26.2766 10.301 26.2773 10.3025 26.2781C10.315 26.2836 10.3299 26.2922 10.3478 26.3047C10.3533 26.3087 10.3595 26.3133 10.3666 26.3187C10.3806 26.3298 10.3955 26.3437 10.4119 26.3602C10.5572 26.5048 10.7923 26.8555 11.0478 27.6273C11.3306 28.482 11.5517 29.6102 11.6259 30.5703C11.6517 30.9126 11.89 31.1962 12.2064 31.2907C12.2307 31.2985 12.2556 31.3048 12.2806 31.3094C12.318 31.3173 12.3571 31.3219 12.3962 31.3242C12.4095 31.325 12.4228 31.3258 12.4361 31.3258C12.4938 31.3258 12.5516 31.322 12.6095 31.3141C12.6478 31.3087 12.6861 31.3016 12.7236 31.293C12.7619 31.2844 12.7994 31.2743 12.8361 31.2625C12.8377 31.2625 12.84 31.2617 12.8415 31.2609C12.8845 31.2468 12.9266 31.2312 12.968 31.2133C13.0071 31.1961 13.0454 31.1773 13.0829 31.1562C13.1024 31.1462 13.1212 31.1352 13.1399 31.1234C13.1587 31.1118 13.1773 31.0992 13.1962 31.0867C13.2337 31.0618 13.2696 31.0352 13.3048 31.0062C13.3204 30.9937 13.3353 30.9805 13.3502 30.9672C13.3775 30.943 13.404 30.9172 13.4298 30.8914C13.4322 30.8891 13.4345 30.8867 13.4361 30.8844C13.4572 30.8625 13.4775 30.8399 13.497 30.8164C13.5118 30.7977 13.5275 30.7789 13.5415 30.7594C13.5423 30.7594 13.5423 30.7586 13.5423 30.7586C13.5571 30.7391 13.572 30.7187 13.5853 30.6984C13.5892 30.6953 13.5907 30.6922 13.5916 30.6891C13.6063 30.6679 13.6196 30.6461 13.6329 30.6242C13.6462 30.603 13.6579 30.5812 13.6704 30.5594C13.6712 30.557 13.6727 30.5555 13.6735 30.5531C13.686 30.5289 13.6977 30.5047 13.7095 30.4798C13.7321 30.4305 13.7516 30.3798 13.7688 30.3282C13.7813 30.2907 13.7923 30.2524 13.8016 30.2134L14.9783 25.2977H15.8002L16.9768 30.2134C17.0728 30.6165 17.3337 30.9501 17.6728 31.1438C17.7236 31.1727 17.7759 31.1985 17.8307 31.2211C17.8486 31.2281 17.8666 31.2352 17.8845 31.2423C17.922 31.2555 17.9587 31.2672 17.997 31.2782C18.0158 31.283 18.0345 31.2876 18.054 31.2923C18.0923 31.3009 18.1313 31.3079 18.1704 31.3134C18.229 31.322 18.2892 31.3259 18.3493 31.3259C18.3626 31.3259 18.3759 31.3251 18.3884 31.3243C18.4274 31.322 18.4657 31.3173 18.5032 31.3095C18.5282 31.3041 18.5525 31.2978 18.5759 31.2908C18.733 31.2431 18.8705 31.1486 18.972 31.0228C18.9884 31.0033 19.0025 30.9837 19.0165 30.9634C19.0509 30.9119 19.0805 30.8555 19.1025 30.7962C19.1072 30.7844 19.111 30.7719 19.1149 30.7602C19.1228 30.736 19.1298 30.711 19.1353 30.686C19.1384 30.6735 19.1407 30.661 19.1431 30.6485C19.1431 30.6477 19.1431 30.6477 19.1431 30.6477C19.1478 30.6219 19.151 30.5962 19.1533 30.5704C19.172 30.3306 19.1994 30.0798 19.2345 29.8259C19.2439 29.7626 19.2533 29.6986 19.2627 29.6345C19.2822 29.5064 19.304 29.3783 19.3275 29.2509C19.4322 28.6759 19.5712 28.1087 19.7306 27.6275C19.7541 27.5573 19.7767 27.49 19.8002 27.4268C19.8072 27.4073 19.8142 27.3877 19.8212 27.3682C19.8424 27.3104 19.8634 27.2557 19.8846 27.2041C19.9127 27.1345 19.9393 27.0697 19.9666 27.0104C19.9987 26.9393 20.03 26.8737 20.0604 26.8142C20.0682 26.7994 20.0752 26.7854 20.083 26.7713C20.1057 26.7291 20.1276 26.6909 20.1487 26.6549C20.1674 26.6237 20.1862 26.594 20.2034 26.5674C20.2025 26.5666 20.2025 26.5666 20.2034 26.5666C20.226 26.5323 20.2478 26.5009 20.269 26.4737C20.2784 26.4612 20.2877 26.4494 20.2963 26.4385C20.3026 26.4307 20.3088 26.4237 20.3143 26.4174C20.3252 26.4041 20.3362 26.3924 20.3463 26.3815C20.3526 26.3745 20.3596 26.3674 20.3666 26.3603C20.383 26.3439 20.3978 26.3298 20.412 26.3189C20.4173 26.3151 20.4221 26.3104 20.4267 26.3073C20.4369 26.2994 20.4455 26.294 20.4541 26.2894C20.4635 26.2839 20.4713 26.2799 20.4784 26.2777C20.4815 26.2761 20.4838 26.2753 20.4862 26.2745C20.4916 26.2737 20.4964 26.2729 20.5003 26.2729C20.5042 26.2729 20.5089 26.2737 20.5144 26.2745C20.5167 26.2753 20.5191 26.2762 20.5223 26.2777C20.5293 26.2799 20.537 26.2839 20.5465 26.2894C20.5551 26.2941 20.5637 26.2994 20.5738 26.3073C20.5786 26.3104 20.5832 26.3152 20.5887 26.3189C20.6027 26.3299 20.6176 26.3439 20.634 26.3603C20.641 26.3674 20.648 26.3745 20.6543 26.3815C20.6645 26.3924 20.6755 26.4041 20.6863 26.4174C20.6918 26.4236 20.698 26.4307 20.7043 26.4385C20.7128 26.4494 20.7222 26.4612 20.7316 26.4737C20.7528 26.501 20.7746 26.5323 20.7973 26.5666C20.798 26.5666 20.798 26.5666 20.7973 26.5674C20.8145 26.594 20.8332 26.6237 20.852 26.6549C20.873 26.6909 20.8949 26.7291 20.9176 26.7713C20.9254 26.7854 20.9324 26.7994 20.9402 26.8142C20.9707 26.8737 21.002 26.9393 21.034 27.0104C21.0613 27.0698 21.0878 27.1346 21.116 27.2041C21.1372 27.2556 21.1582 27.3103 21.1793 27.3682C21.1864 27.3877 21.1934 27.4073 21.2005 27.4268C21.2239 27.4901 21.2466 27.5573 21.27 27.6275C21.5528 28.4822 21.7739 29.6104 21.8474 30.5705C21.8482 30.5853 21.8505 30.6002 21.8521 30.615C21.8552 30.6362 21.8584 30.6572 21.863 30.6784C21.881 30.7612 21.9115 30.8401 21.9522 30.9111C21.9623 30.9291 21.9733 30.9462 21.9842 30.9627C22.0475 31.0564 22.1287 31.1361 22.224 31.1962C22.2552 31.2173 22.2873 31.2353 22.3216 31.2509C22.356 31.2665 22.3913 31.2798 22.4287 31.2908C22.4522 31.2978 22.4771 31.3041 22.5021 31.3095C22.5395 31.3173 22.5786 31.322 22.6177 31.3243C22.6309 31.3251 22.6442 31.3259 22.6576 31.3259C22.7153 31.3259 22.7731 31.322 22.8302 31.3142C22.8693 31.3088 22.9075 31.3017 22.9451 31.293C22.9825 31.2845 23.0201 31.2744 23.0576 31.2626C23.0598 31.2626 23.0615 31.2618 23.063 31.261C23.1068 31.2469 23.1497 31.2313 23.1911 31.2126C23.2294 31.1953 23.2677 31.1766 23.3044 31.1562C23.3239 31.1462 23.3427 31.1352 23.3622 31.1234C23.3809 31.1118 23.3997 31.0992 23.4184 31.0867C23.4193 31.0867 23.4201 31.0867 23.4201 31.0859C23.4568 31.0609 23.4927 31.0344 23.5271 31.0062C23.5427 30.9937 23.5576 30.9804 23.5724 30.9671C23.5998 30.9429 23.6262 30.9171 23.6521 30.8913C23.6545 30.889 23.6569 30.8866 23.6584 30.8843C23.6795 30.8624 23.6998 30.8398 23.7193 30.8163C23.8045 30.7155 23.8763 30.6023 23.9318 30.4796C23.9545 30.4304 23.974 30.3796 23.9912 30.328C24.0037 30.2905 24.0147 30.2523 24.024 30.2132L25.2006 25.2976H26.0225L27.1991 30.2132C27.2515 30.4343 27.3546 30.635 27.4929 30.803C27.5179 30.8336 27.5445 30.8632 27.5718 30.8913C27.7351 31.0609 27.939 31.1898 28.1625 31.2609C28.1758 31.2655 28.1891 31.2694 28.2023 31.2733C28.2461 31.285 28.2898 31.2952 28.3336 31.3038C28.3477 31.3061 28.3617 31.3086 28.375 31.3101C28.3859 31.3116 28.3961 31.3132 28.4062 31.3148C28.4336 31.3179 28.4609 31.321 28.4891 31.3227C28.5164 31.3249 28.5445 31.3257 28.5727 31.3257C28.5852 31.3257 28.5984 31.3249 28.6109 31.3241C28.6499 31.3219 28.6882 31.3171 28.7258 31.3094C28.7507 31.3039 28.775 31.2977 28.7984 31.2906C28.9305 31.2508 29.0492 31.1773 29.1445 31.0789C29.1703 31.0515 29.1946 31.0234 29.2173 30.9937C29.2399 30.9641 29.2595 30.932 29.2774 30.8992C29.2837 30.8882 29.2891 30.8773 29.2946 30.8655C29.3056 30.8429 29.3158 30.8194 29.3252 30.796C29.3384 30.7601 29.3494 30.7234 29.358 30.6859C29.3619 30.6671 29.3658 30.6476 29.3689 30.6288C29.372 30.6093 29.3744 30.5898 29.3759 30.5702C29.3853 30.45 29.3963 30.3273 29.4096 30.2031C29.4237 30.0789 29.4393 29.9523 29.4572 29.8258C29.4745 29.6984 29.4947 29.5703 29.5158 29.4422C29.5697 29.1227 29.6353 28.8024 29.7088 28.4953C29.7229 28.4344 29.7385 28.3734 29.7541 28.3133C29.7689 28.2523 29.7846 28.193 29.801 28.1344C29.8166 28.075 29.833 28.0172 29.8502 27.9602C29.8588 27.9313 29.8674 27.9024 29.8752 27.8742C29.8837 27.8454 29.8924 27.8173 29.9018 27.7891C29.9103 27.761 29.9197 27.7328 29.9284 27.7047C29.9323 27.6914 29.937 27.6789 29.9409 27.6656C29.9448 27.6523 29.9494 27.6398 29.9534 27.6273C29.965 27.5923 29.976 27.5578 29.9877 27.5243C29.9994 27.4915 30.0112 27.4586 30.022 27.4266C30.0447 27.3634 30.0681 27.3032 30.09 27.2462C30.0985 27.225 30.1064 27.2039 30.1149 27.1836C30.1313 27.143 30.1478 27.1039 30.1641 27.0664C30.1727 27.0469 30.1806 27.0281 30.1884 27.0102C30.2041 26.975 30.2197 26.9414 30.2361 26.9086C30.2516 26.8758 30.2673 26.8445 30.2822 26.8148C30.2923 26.7953 30.3025 26.7758 30.3127 26.757C30.3384 26.7094 30.3634 26.6656 30.3884 26.6266C30.465 26.5 30.533 26.4156 30.5892 26.3602C30.6056 26.3437 30.6205 26.3297 30.6345 26.3187C30.64 26.3149 30.6447 26.3102 30.6494 26.3071C30.6595 26.2992 30.668 26.2938 30.6767 26.2892C30.6861 26.2837 30.6939 26.2798 30.7009 26.2775C30.7041 26.2759 30.7064 26.2752 30.7088 26.2744C30.7143 26.2735 30.719 26.2727 30.7229 26.2727C30.7268 26.2727 30.7315 26.2735 30.737 26.2744C30.7393 26.2752 30.7417 26.276 30.7448 26.2775C30.7519 26.2798 30.7596 26.2837 30.7691 26.2892C30.7777 26.2939 30.7863 26.2993 30.7965 26.3071C30.8012 26.3102 30.8059 26.315 30.8113 26.3187C30.8254 26.3298 30.8402 26.3437 30.8566 26.3602C31.0019 26.5048 31.237 26.8555 31.4925 27.6273C31.7754 28.482 31.9964 29.6102 32.0699 30.5703C32.0707 30.5852 32.073 30.6001 32.0746 30.6148C32.0777 30.636 32.0809 30.657 32.0856 30.6782C32.1489 30.9712 32.3684 31.2063 32.6504 31.2907C32.6747 31.2985 32.6996 31.3048 32.7246 31.3094C32.762 31.3173 32.8011 31.3219 32.8402 31.3242C32.8534 31.325 32.8668 31.3258 32.8801 31.3258C32.9378 31.3258 32.9964 31.322 33.0535 31.3141C33.0941 31.3079 33.134 31.3009 33.173 31.2923C33.2073 31.2844 33.241 31.2751 33.2746 31.2642C33.2785 31.2634 33.2824 31.2626 33.2855 31.2611C33.3255 31.2486 33.3645 31.2337 33.4027 31.2173C33.4075 31.2149 33.4121 31.2134 33.4169 31.2111C33.4341 31.2032 33.4512 31.1954 33.4684 31.1868C33.5075 31.1673 33.5466 31.1462 33.584 31.1234C33.6027 31.1118 33.6214 31.0992 33.6395 31.0867C33.6542 31.0766 33.6691 31.0664 33.684 31.0555C33.6855 31.0539 33.6879 31.0532 33.6895 31.0516C33.705 31.0399 33.7206 31.0281 33.7355 31.0157C33.7395 31.0125 33.7441 31.0094 33.748 31.0062C33.7792 30.9813 33.8089 30.9547 33.8371 30.9273C33.866 30.9008 33.8941 30.8711 33.9199 30.8407C33.9332 30.8259 33.9457 30.8109 33.9582 30.7954C33.9957 30.7493 34.0309 30.7008 34.0621 30.6501C34.0754 30.6289 34.0887 30.6079 34.1004 30.5861C34.1183 30.5541 34.1347 30.5212 34.1511 30.4876V30.4868C34.1675 30.4531 34.1816 30.4196 34.1941 30.3844C34.2011 30.3657 34.2073 30.347 34.2136 30.3281C34.2261 30.2906 34.2371 30.2523 34.2464 30.2133L34.866 27.6242C34.9425 27.6352 35.0214 27.6414 35.1004 27.6414C35.6246 27.6414 36.1004 27.3883 36.3948 26.9852C36.6527 27.1539 36.9573 27.2469 37.273 27.2469C37.7245 27.2469 38.1331 27.0594 38.4245 26.7587V37.2413H38.4234Z" fill="#277FF2"/>
<path d="M10.1643 13.8013C8.53915 13.8013 7.21704 12.4792 7.21704 10.8541C7.21704 9.22891 8.53915 7.90688 10.1643 7.90688C11.7894 7.90688 13.1115 9.22899 13.1115 10.8541C13.1115 12.4791 11.7894 13.8013 10.1643 13.8013ZM10.1643 8.68813C8.97001 8.68813 7.99829 9.65977 7.99829 10.8541C7.99829 12.0484 8.97001 13.0201 10.1643 13.0201C11.3586 13.0201 12.3302 12.0484 12.3302 10.8541C12.3302 9.65977 11.3586 8.68813 10.1643 8.68813Z" fill="#277FF2"/>
<path d="M11.2455 11.9916C11.1855 11.9916 11.1252 11.9719 11.0747 11.9316C10.9568 11.8372 10.9378 11.6651 11.0322 11.5472C11.1914 11.3484 11.2756 11.1087 11.2756 10.8541C11.2756 10.7808 11.2683 10.7075 11.2541 10.6362C11.2246 10.488 11.3207 10.3441 11.4687 10.3144C11.6165 10.2846 11.7607 10.3809 11.7904 10.529C11.8117 10.6355 11.8224 10.7449 11.8224 10.8541C11.8224 11.2288 11.6934 11.5964 11.459 11.8891C11.4051 11.9565 11.3256 11.9916 11.2455 11.9916Z" fill="#277FF2"/>
<path d="M10.8943 9.95141C10.8448 9.95141 10.7949 9.93805 10.7499 9.91C10.6789 9.86578 10.603 9.82961 10.5243 9.80266C10.3815 9.75359 10.3054 9.59805 10.3545 9.45523C10.4036 9.31242 10.5587 9.23648 10.7019 9.28539C10.8196 9.32578 10.9329 9.37977 11.039 9.44586C11.1672 9.5257 11.2064 9.69438 11.1265 9.8225C11.0747 9.9057 10.9855 9.95141 10.8943 9.95141Z" fill="#277FF2"/>
<path d="M20.4382 7.87179C18.8131 7.87179 17.491 6.54968 17.491 4.92453C17.491 3.29937 18.8131 1.97734 20.4382 1.97734C22.0634 1.97734 23.3855 3.29945 23.3855 4.92453C23.3855 6.54961 22.0634 7.87179 20.4382 7.87179ZM20.4382 2.75867C19.2439 2.75867 18.2722 3.73031 18.2722 4.92461C18.2722 6.11898 19.2439 7.09062 20.4382 7.09062C21.6325 7.09062 22.6042 6.11898 22.6042 4.92461C22.6042 3.73031 21.6325 2.75867 20.4382 2.75867Z" fill="#277FF2"/>
<path d="M21.5194 6.06203C21.4594 6.06203 21.3991 6.04242 21.3487 6.00203C21.2308 5.90765 21.2117 5.73554 21.3061 5.61765C21.4653 5.41882 21.5494 5.17913 21.5494 4.92453C21.5494 4.85101 21.5422 4.77773 21.528 4.70663C21.4985 4.55851 21.5946 4.41453 21.7426 4.38492C21.8907 4.35531 22.0347 4.45132 22.0644 4.59945C22.0855 4.7057 22.0963 4.81507 22.0963 4.92453C22.0963 5.29921 21.9673 5.66679 21.733 5.95945C21.679 6.02695 21.5996 6.06203 21.5194 6.06203Z" fill="#277FF2"/>
<path d="M21.1682 4.02187C21.1187 4.02187 21.0688 4.00851 21.0238 3.98047C20.9528 3.93625 20.8769 3.90007 20.7983 3.87312C20.6555 3.82406 20.5794 3.66851 20.6284 3.5257C20.6775 3.38289 20.8328 3.30687 20.9758 3.35586C21.0935 3.39625 21.2069 3.45023 21.3129 3.51632C21.4411 3.59617 21.4803 3.76484 21.4004 3.89297C21.3487 3.97625 21.2594 4.02187 21.1682 4.02187Z" fill="#277FF2"/>
<path d="M38.9389 10.1904L15.7193 10.1048C15.7171 10.1048 15.7147 10.1048 15.7125 10.1048C15.2326 10.1048 14.7811 10.2909 14.4404 10.6291C14.0981 10.9689 13.9085 11.4217 13.9068 11.9041C13.905 12.3866 14.0911 12.8408 14.431 13.1831C14.7709 13.5255 15.2236 13.715 15.706 13.7168L15.7701 13.717L15.7541 18.059C15.7537 18.1626 15.7946 18.2621 15.8675 18.3356C15.9405 18.4091 16.0396 18.4507 16.1432 18.4511L24.6353 18.4823C24.6358 18.4823 24.6363 18.4823 24.6367 18.4823C24.7398 18.4823 24.8388 18.4416 24.9119 18.3689C24.9854 18.2959 25.027 18.1967 25.0274 18.0931L25.0433 13.7512L38.936 13.8023C38.9364 13.8023 38.937 13.8023 38.9375 13.8023C39.0407 13.8023 39.1399 13.7614 39.2132 13.6884C39.2867 13.6152 39.3281 13.5156 39.3281 13.4117V10.581C39.3281 10.3659 39.154 10.1912 38.9389 10.1904ZM24.2476 17.6996L23.6135 17.6973L23.6182 16.4484C23.6189 16.2327 23.4447 16.0571 23.229 16.0563C23.2285 16.0563 23.228 16.0563 23.2275 16.0563C23.0125 16.0563 22.8377 16.2302 22.8369 16.4454L22.8323 17.6943L22.1982 17.692L22.2055 15.7163C22.2063 15.5005 22.0321 15.3251 21.8164 15.3242C21.8158 15.3242 21.8153 15.3242 21.8149 15.3242C21.5998 15.3242 21.425 15.4982 21.4242 15.7134L21.4169 17.6891L20.7829 17.6867L20.7882 16.2255C20.789 16.0097 20.6148 15.8342 20.3991 15.8334C20.3985 15.8334 20.3981 15.8334 20.3976 15.8334C20.1825 15.8334 20.0078 16.0073 20.007 16.2225L20.0017 17.6838L19.3675 17.6814L19.3792 14.5218C19.38 14.306 19.2057 14.1305 18.99 14.1297C18.9895 14.1297 18.989 14.1297 18.9885 14.1297C18.7735 14.1297 18.5987 14.3037 18.5979 14.5188L18.5863 17.6784L17.9522 17.6761L17.9596 15.7004C17.9603 15.4847 17.7861 15.3091 17.5704 15.3083C17.5699 15.3083 17.5694 15.3083 17.5689 15.3083C17.3539 15.3083 17.1791 15.4823 17.1783 15.6974L17.171 17.6731L16.5369 17.6708L16.5515 13.7195L19.6432 13.7309L24.2622 13.7479L24.2476 17.6996ZM38.5468 13.0197L24.6557 12.9685H24.6556L18.588 12.9462L15.7089 12.9355C15.4351 12.9345 15.1782 12.827 14.9853 12.6327C14.7925 12.4385 14.6869 12.1808 14.6878 11.907C14.6888 11.6333 14.7964 11.3764 14.9907 11.1835C15.184 10.9916 15.4402 10.8861 15.7124 10.8861C15.7137 10.8861 15.715 10.8861 15.7163 10.8861L38.5468 10.9702V13.0197Z" fill="#277FF2"/>
</svg>
