<svg width="24" height="25" viewBox="0 0 24 25" fill="none" xmlns="http://www.w3.org/2000/svg">
<path fill-rule="evenodd" clip-rule="evenodd" d="M10.48 5.17956C8.31105 3.95956 6.39005 4.53306 4.79255 6.47206C3.25155 8.34306 4.30255 11.7161 5.05755 14.1411C5.23755 14.7191 5.40105 15.2436 5.50855 15.6806C6.06605 17.9506 6.60005 19.3656 7.81655 20.3896C8.41905 20.8966 9.10255 20.0251 9.82355 19.1061C10.4485 18.3091 11.1015 17.4761 11.755 17.4741C12.3975 17.4721 13.0405 18.3041 13.657 19.1011C14.3685 20.0211 15.0445 20.8961 15.6435 20.3896C16.5735 19.6046 16.995 19.0286 17.506 17.4116C18.0625 15.6481 18.962 13.5391 19.677 11.1081C20.18 9.39806 20.24 7.65606 18.7905 5.97556C16.7205 3.57556 13.852 4.81556 12.5165 5.60906L14.3255 7.15906C14.3755 7.2018 14.4164 7.25396 14.4462 7.31254C14.4759 7.37113 14.4939 7.43501 14.4989 7.50052C14.504 7.56603 14.4961 7.6319 14.4757 7.69436C14.4553 7.75682 14.4228 7.81465 14.38 7.86456C14.3373 7.91446 14.2851 7.95545 14.2266 7.9852C14.168 8.01494 14.1041 8.03286 14.0386 8.03792C13.9731 8.04298 13.9072 8.03509 13.8447 8.01469C13.7823 7.9943 13.7245 7.9618 13.6745 7.91906L10.48 5.17906V5.17956Z" fill="#277FF2"/>
</svg>
