<svg width="24" height="25" viewBox="0 0 24 25" fill="none" xmlns="http://www.w3.org/2000/svg">
<path fill-rule="evenodd" clip-rule="evenodd" d="M10.4799 5.17956C8.31093 3.95956 6.38993 4.53306 4.79243 6.47206C3.25143 8.34306 4.30243 11.7161 5.05743 14.1411C5.23743 14.7191 5.40093 15.2436 5.50843 15.6806C6.06593 17.9506 6.59993 19.3656 7.81643 20.3896C8.41893 20.8966 9.10243 20.0251 9.82343 19.1061C10.4484 18.3091 11.1014 17.4761 11.7549 17.4741C12.3974 17.4721 13.0404 18.3041 13.6569 19.1011C14.3684 20.0211 15.0444 20.8961 15.6434 20.3896C16.5734 19.6046 16.9949 19.0286 17.5059 17.4116C18.0624 15.6481 18.9619 13.5391 19.6769 11.1081C20.1799 9.39806 20.2399 7.65606 18.7904 5.97556C16.7204 3.57556 13.8519 4.81556 12.5164 5.60906L14.3254 7.15906C14.3753 7.2018 14.4163 7.25396 14.4461 7.31254C14.4758 7.37113 14.4937 7.43501 14.4988 7.50052C14.5039 7.56603 14.496 7.6319 14.4756 7.69436C14.4552 7.75682 14.4227 7.81465 14.3799 7.86456C14.3372 7.91446 14.285 7.95545 14.2264 7.9852C14.1678 8.01494 14.104 8.03286 14.0385 8.03792C13.973 8.04298 13.9071 8.03509 13.8446 8.01469C13.7822 7.9943 13.7243 7.9618 13.6744 7.91906L10.4799 5.17906V5.17956Z" fill="black" fill-opacity="0.3"/>
</svg>
