<svg width="97" height="97" viewBox="0 0 97 97" fill="none" xmlns="http://www.w3.org/2000/svg">
<g clip-path="url(#clip0_553_1787)">
<path d="M17.9875 47.517C18.0697 47.9594 17.9727 48.4164 17.7181 48.7874C17.4634 49.1584 17.0718 49.413 16.6294 49.4952C16.187 49.5774 15.7302 49.4804 15.3593 49.2256C14.9884 48.9709 14.7339 48.5792 14.6517 48.1367C13.1945 37.5267 11.0185 24.755 20.9268 17.0454C23.1155 15.5444 25.6103 14.5486 28.2308 14.1302C30.8514 13.7117 33.5321 13.8811 36.0792 14.6259C36.2943 14.6839 36.4959 14.7836 36.6725 14.9195C36.8491 15.0554 36.9972 15.2248 37.1084 15.4179C37.2195 15.611 37.2916 15.8242 37.3204 16.0451C37.3492 16.2661 37.3342 16.4906 37.2762 16.7058C37.2183 16.921 37.1186 17.1226 36.9827 17.2993C36.8469 17.4759 36.6776 17.624 36.4845 17.7352C36.2914 17.8464 36.0783 17.9185 35.8574 17.9473C35.6365 17.9761 35.4121 17.9611 35.1969 17.9031C33.1135 17.2951 30.9211 17.1576 28.7781 17.5006C26.6351 17.8435 24.5951 18.6584 22.8054 19.8863C14.6269 26.2771 16.7087 38.4439 17.9875 47.517ZM64.5798 46.5254C64.1455 46.5488 63.7366 46.738 63.4374 47.0539C63.1382 47.3698 62.9715 47.7883 62.9715 48.2235C62.9715 48.6586 63.1382 49.0772 63.4374 49.393C63.7366 49.7089 64.1455 49.8981 64.5798 49.9216H69.1052C69.5396 49.8981 69.9485 49.7089 70.2477 49.393C70.5468 49.0772 70.7136 48.6586 70.7136 48.2235C70.7136 47.7883 70.5468 47.3698 70.2477 47.0539C69.9485 46.738 69.5396 46.5488 69.1052 46.5254H64.5798ZM80.441 46.5254C80.0067 46.5488 79.5978 46.738 79.2986 47.0539C78.9994 47.3698 78.8327 47.7883 78.8327 48.2235C78.8327 48.6586 78.9994 49.0772 79.2986 49.393C79.5978 49.7089 80.0067 49.8981 80.441 49.9216C82.6616 49.6935 86.6269 50.8189 86.6616 48.2259C86.6963 45.6329 82.6567 46.7782 80.4311 46.5502L80.441 46.5254ZM74.7756 52.2072C72.1833 52.2369 73.2886 56.2033 73.0755 58.4294C73.0768 58.88 73.2563 59.3118 73.5749 59.6304C73.8934 59.9491 74.3251 60.1287 74.7756 60.13C77.3679 60.0953 76.2626 56.1289 76.4708 53.9028C76.4708 53.4531 76.2922 53.0218 75.9743 52.7038C75.6564 52.3858 75.2252 52.2072 74.7756 52.2072ZM76.4708 38.0671C76.4708 37.6174 76.2922 37.1861 75.9743 36.8681C75.6564 36.5501 75.2252 36.3715 74.7756 36.3715C74.326 36.3715 73.8949 36.5501 73.577 36.8681C73.259 37.1861 73.0805 37.6174 73.0805 38.0671C73.3035 40.2833 72.1783 44.2546 74.7756 44.2844C77.3729 44.3141 76.2428 40.2833 76.4708 38.0671ZM107.663 20.0152C107.45 20.0818 107.253 20.1897 107.082 20.3328C106.912 20.4758 106.771 20.6512 106.668 20.8489C106.565 21.0465 106.503 21.2625 106.484 21.4845C106.465 21.7064 106.49 21.93 106.558 22.1422C108.254 27.5456 108.905 33.223 108.476 38.8703C106.349 64.9491 96.8326 91.1419 83.6381 107.216C83.1568 107.804 82.507 108.231 81.7761 108.439C81.0451 108.647 80.268 108.626 79.5491 108.38C78.8303 108.133 78.2041 107.672 77.7548 107.059C77.3055 106.446 77.0546 105.71 77.0358 104.95C74.7013 79.4511 64.2874 62.3115 56.0197 62.3115C47.7521 62.3115 37.3382 79.4461 35.0086 104.95C34.9886 105.709 34.7373 106.443 34.2883 107.055C33.8392 107.667 33.214 108.127 32.4963 108.373C31.7786 108.62 31.0027 108.641 30.2726 108.434C29.5425 108.227 28.893 107.802 28.4113 107.216C14.0123 90.7007 -8.57506 33.5752 11.3506 11.3686C30.6467 -9.26144 60.4906 16.2373 65.7 22.3703C67.187 24.0262 69.7099 21.6464 68.1783 20.0698C65.5232 17.3041 62.667 14.7387 59.6331 12.3949C64.3469 9.00859 77.928 0.495795 90.5179 4.60593C90.7293 4.6769 90.9528 4.70505 91.1753 4.68873C91.3977 4.67241 91.6147 4.61196 91.8135 4.51089C92.0124 4.40982 92.1891 4.27017 92.3335 4.10007C92.4778 3.92997 92.5868 3.73283 92.6542 3.52014C92.7935 3.09212 92.7574 2.62632 92.554 2.22483C92.3505 1.82335 91.9962 1.51893 91.5687 1.37831C76.5005 -3.54493 60.9565 7.09482 56.788 10.2679C29.2837 -11.0959 -2.76093 2.92023 0.188262 39.1678C2.36918 65.8861 12.1783 92.7979 25.7744 109.377C26.428 110.196 27.2575 110.857 28.2014 111.311C29.1453 111.765 30.1793 112 31.2267 112C33.0482 111.976 34.795 111.272 36.1246 110.027C37.4541 108.781 38.2706 107.084 38.4138 105.267C40.6195 81.1269 50.3097 65.7126 56.0445 65.7126C61.7793 65.7126 71.4745 81.1219 73.6802 105.262C73.7843 106.68 74.3081 108.036 75.1849 109.155C76.0616 110.275 77.2516 111.108 78.6034 111.549C79.9552 111.99 81.4075 112.018 82.7755 111.63C84.1434 111.243 85.3651 110.457 86.2849 109.372C99.8909 92.788 109.7 65.8812 111.881 39.1479C112.345 33.0608 111.645 26.941 109.819 21.1159C109.752 20.9004 109.643 20.7004 109.498 20.5278C109.352 20.3551 109.174 20.2134 108.973 20.1108C108.772 20.0082 108.553 19.9469 108.328 19.9305C108.103 19.9141 107.877 19.9429 107.663 20.0152ZM88.2279 11.8991C88.2577 14.497 92.223 13.3865 94.4485 13.5996C94.6726 13.601 94.8947 13.5579 95.1021 13.4731C95.3095 13.3882 95.4981 13.2631 95.6571 13.1051C95.816 12.947 95.9421 12.7591 96.0282 12.5522C96.1142 12.3452 96.1585 12.1232 96.1585 11.8991C96.1288 9.30606 92.1585 10.4117 89.938 10.2035C89.7141 10.2015 89.4921 10.2439 89.2847 10.3282C89.0773 10.4126 88.8887 10.5371 88.7297 10.6948C88.5707 10.8524 88.4445 11.04 88.3584 11.2467C88.2722 11.4534 88.2279 11.6751 88.2279 11.8991ZM105.76 13.5996C107.985 13.3716 111.945 14.497 111.98 11.8991C112.015 9.30111 107.98 10.4117 105.76 10.2035C105.347 10.2559 104.969 10.4575 104.695 10.7701C104.421 11.0828 104.272 11.4849 104.274 11.9004C104.276 12.316 104.431 12.7163 104.708 13.0257C104.986 13.3351 105.367 13.5322 105.779 13.5798L105.76 13.5996ZM100.124 23.7585C102.716 23.7287 101.611 19.7574 101.819 17.5363C101.812 17.0909 101.631 16.6659 101.314 16.3533C100.997 16.0406 100.569 15.8654 100.124 15.8654C97.5315 15.8952 98.6368 19.8665 98.4287 22.0876C98.4352 22.533 98.6166 22.958 98.9338 23.2706C99.251 23.5833 99.6785 23.7585 100.124 23.7585ZM100.124 7.91784C102.716 7.88809 101.611 3.95148 101.819 1.69562C101.819 1.24591 101.64 0.814625 101.322 0.496635C101.005 0.178645 100.573 0 100.124 0C97.5315 0.0297477 98.6368 4.00106 98.4287 6.22222C98.4267 6.44614 98.4691 6.66823 98.5534 6.87568C98.6377 7.08312 98.7623 7.2718 98.9199 7.43083C99.0775 7.58986 99.265 7.71609 99.4717 7.80223C99.6783 7.88838 99.9 7.93272 100.124 7.93271V7.91784Z" fill="white"/>
</g>
<defs>
<clipPath id="clip0_553_1787">
<rect width="112" height="112" fill="white"/>
</clipPath>
</defs>
</svg>
