<svg width="38" height="38" viewBox="0 0 38 38" fill="none" xmlns="http://www.w3.org/2000/svg">
<g clip-path="url(#clip0_553_1791)">
<path d="M8.59872 19.8922C8.65819 19.9917 8.67574 20.1106 8.6475 20.223C8.61926 20.3354 8.54754 20.4319 8.44813 20.4914C8.34872 20.5508 8.22976 20.5684 8.11741 20.5401C8.00506 20.5118 7.90853 20.4401 7.84906 20.3407C6.54674 17.9102 4.87727 15.0224 6.57816 12.2738C6.97197 11.7154 7.48494 11.2515 8.07999 10.9157C8.67504 10.58 9.33728 10.3807 10.0188 10.3322C10.0759 10.327 10.1335 10.333 10.1883 10.35C10.2431 10.3669 10.2941 10.3945 10.3382 10.4312C10.3823 10.4679 10.4188 10.5129 10.4456 10.5636C10.4723 10.6144 10.4888 10.6699 10.4941 10.727C10.4994 10.7842 10.4934 10.8418 10.4764 10.8966C10.4594 10.9514 10.4319 11.0023 10.3952 11.0464C10.3586 11.0906 10.3136 11.1271 10.2628 11.1538C10.2121 11.1806 10.1566 11.197 10.0995 11.2023C9.54212 11.2422 9.0006 11.4054 8.51406 11.6802C8.02752 11.955 7.60811 12.3345 7.28613 12.7912C5.88462 15.0665 7.47717 17.8168 8.59872 19.8922ZM19.7561 15.4785C19.6534 15.5231 19.5716 15.6054 19.5277 15.7085C19.4838 15.8115 19.4811 15.9275 19.52 16.0325C19.559 16.1375 19.6368 16.2236 19.7373 16.2731C19.8378 16.3225 19.9534 16.3315 20.0604 16.2983L21.1527 15.8929C21.2555 15.8483 21.3372 15.766 21.3811 15.6629C21.425 15.5599 21.4278 15.4439 21.3888 15.3389C21.3498 15.2339 21.2721 15.1478 21.1715 15.0983C21.071 15.0489 20.9554 15.0399 20.8484 15.0731L19.7561 15.4785ZM23.5846 14.0575C23.4819 14.1021 23.4001 14.1844 23.3562 14.2874C23.3123 14.3905 23.3096 14.5064 23.3485 14.6115C23.3875 14.7165 23.4653 14.8026 23.5658 14.852C23.6663 14.9015 23.782 14.9105 23.8889 14.8773C24.4045 14.6233 25.4624 14.5397 25.2385 13.9107C25.0145 13.2817 24.1421 13.92 23.5845 14.0644L23.5846 14.0575ZM22.7262 15.9365C22.1031 16.176 22.7253 17.0343 22.8733 17.5907C22.914 17.6994 22.996 17.7875 23.1014 17.8359C23.2069 17.8843 23.3271 17.8889 23.436 17.8489C24.0586 17.6083 23.4365 16.7499 23.2873 16.1939C23.247 16.0854 23.1652 15.9973 23.06 15.949C22.9548 15.9007 22.8347 15.8962 22.7262 15.9365ZM21.8685 12.3716C21.8282 12.263 21.7465 12.1749 21.6412 12.1267C21.536 12.0784 21.4159 12.0739 21.3074 12.1142C21.1989 12.1545 21.1108 12.2362 21.0626 12.3414C21.0143 12.4467 21.0099 12.5668 21.0502 12.6753C21.3026 13.1903 21.3868 14.2497 22.0164 14.0242C22.6459 13.7986 22.012 12.9269 21.8685 12.3716ZM27.7802 5.21973C27.7349 5.25483 27.6969 5.29856 27.6685 5.34838C27.6401 5.39821 27.6219 5.45316 27.6148 5.51007C27.6077 5.56698 27.6119 5.62473 27.6272 5.68C27.6425 5.73528 27.6686 5.78698 27.704 5.83215C28.5976 6.98438 29.2634 8.29645 29.6657 9.69805C31.4889 16.1833 31.5385 23.3583 29.7937 28.4202C29.7302 28.6053 29.6117 28.7666 29.4539 28.8823C29.2961 28.998 29.1066 29.0626 28.911 29.0675C28.7154 29.0724 28.523 29.0172 28.3596 28.9095C28.1962 28.8017 28.0697 28.6466 27.9971 28.4648C25.1491 22.5192 21.0998 19.3151 19.1042 20.0558C17.1086 20.7966 16.1301 25.8655 17.8527 32.2301C17.9159 32.4151 17.921 32.6149 17.8675 32.8028C17.8139 32.9907 17.7042 33.1578 17.5531 33.2816C17.4019 33.4054 17.2165 33.48 17.0218 33.4955C16.827 33.5109 16.6321 33.4665 16.4633 33.3681C11.5081 30.6718 0.938085 18.9068 3.7581 11.7615C6.56742 5.05313 16.0555 8.5341 17.8624 9.54773C18.3697 9.81421 18.7654 9.01375 18.2545 8.77041C17.3658 8.34072 16.4466 7.97741 15.5043 7.68346C16.3387 6.44378 18.8541 3.17223 22.2613 3.03636C22.3187 3.03455 22.3751 3.02132 22.4274 2.99745C22.4796 2.97358 22.5265 2.93955 22.5655 2.89734C22.6044 2.85513 22.6346 2.80559 22.6542 2.7516C22.6738 2.69761 22.6824 2.64026 22.6796 2.58288C22.6749 2.46709 22.6245 2.35789 22.5394 2.27921C22.4543 2.20053 22.3415 2.15879 22.2257 2.16315C18.1476 2.32479 15.3489 6.2856 14.627 7.42497C6.07406 4.73246 -0.404984 10.9866 3.55439 19.4716C6.47457 25.7254 11.2534 31.3424 16.0205 34.1261C16.2516 34.2652 16.511 34.3504 16.7795 34.3754C17.0481 34.4004 17.3187 34.3646 17.5715 34.2707C18.009 34.1017 18.3676 33.7753 18.5769 33.3556C18.7863 32.9358 18.8313 32.4529 18.7031 32.0016C17.0727 25.9772 18.0307 21.3884 19.4149 20.8746C20.7992 20.3608 24.5199 23.2116 27.2151 28.8408C27.3673 29.1739 27.6152 29.4541 27.9271 29.6458C28.239 29.8374 28.6009 29.9319 28.9667 29.9172C29.3325 29.9025 29.6856 29.7792 29.981 29.5631C30.2765 29.347 30.501 29.0478 30.6258 28.7036C32.4241 23.4816 32.3812 16.1081 30.5125 9.45999C30.0791 7.94914 29.3619 6.53466 28.3992 5.29223C28.3638 5.24619 28.3195 5.20771 28.269 5.17906C28.2184 5.15042 28.1627 5.13218 28.105 5.12542C28.0473 5.11866 27.9888 5.12353 27.933 5.13972C27.8773 5.15592 27.8253 5.18312 27.7802 5.21973ZM22.3619 5.00191C22.6019 5.62633 23.4595 5.003 24.0158 4.85507C24.07 4.83531 24.1198 4.80502 24.1622 4.76595C24.2047 4.72688 24.239 4.6798 24.2632 4.62742C24.2874 4.57503 24.301 4.51837 24.3032 4.4607C24.3055 4.40304 24.2963 4.3455 24.2762 4.29139C24.0367 3.66817 23.1774 4.29074 22.6228 4.43942C22.5686 4.45901 22.5188 4.48914 22.4763 4.52807C22.4338 4.56701 22.3994 4.61398 22.3751 4.66628C22.3509 4.71857 22.3372 4.77516 22.335 4.83277C22.3327 4.89037 22.3419 4.94786 22.3619 5.00191ZM26.746 3.84169C27.2627 3.58725 28.3195 3.50409 28.0951 2.8739C27.8707 2.2437 26.9964 2.87325 26.4417 3.02193C26.3469 3.07151 26.2736 3.1541 26.2355 3.25409C26.1975 3.35407 26.1974 3.46454 26.2352 3.56463C26.273 3.66472 26.3461 3.7475 26.4408 3.79733C26.5355 3.84717 26.6451 3.86061 26.749 3.83513L26.746 3.84169ZM26.2958 6.7987C26.9189 6.55926 26.2963 5.69972 26.1475 5.14493C26.1061 5.03801 26.0242 4.95169 25.9196 4.90465C25.815 4.8576 25.6962 4.8536 25.5887 4.89351C24.9656 5.13294 25.5882 5.99249 25.737 6.54727C25.7784 6.6542 25.8603 6.74051 25.9649 6.78756C26.0695 6.8346 26.1883 6.83861 26.2958 6.7987ZM24.8766 2.97516C25.4997 2.73572 24.8802 1.88455 24.7283 1.32139C24.688 1.21284 24.6063 1.12474 24.5011 1.07647C24.3958 1.02819 24.2758 1.0237 24.1672 1.06398C23.5442 1.30342 24.1668 2.16296 24.3155 2.71775C24.3351 2.77197 24.3653 2.82178 24.4042 2.8643C24.4431 2.90682 24.4901 2.9412 24.5424 2.96547C24.5947 2.98973 24.6513 3.0034 24.7088 3.00568C24.7664 3.00796 24.8239 2.9988 24.878 2.97875L24.8766 2.97516Z" fill="white"/>
</g>
<defs>
<clipPath id="clip0_553_1791">
<rect width="28.8362" height="28.8362" fill="white" transform="translate(0 10.0343) rotate(-20.3637)"/>
</clipPath>
</defs>
</svg>
